<?xml version="1.0" encoding="utf-8"?>
<!-- Generator: Adobe Illustrator 25.2.0, SVG Export Plug-In . SVG Version: 6.00 Build 0)  -->
<svg version="1.1" id="Слой_1" xmlns="http://www.w3.org/2000/svg" xmlns:xlink="http://www.w3.org/1999/xlink" x="0px" y="0px"
	 viewBox="0 0 850 850" style="enable-background:new 0 0 850 850;" xml:space="preserve">
<style type="text/css">
	.st0{fill:#193246;}
</style>
<path class="st0" d="M424.5,102.3c89,0,169.5,36.1,227.9,94.4c58.3,58.3,94.4,138.9,94.4,227.9c0,89-36.1,169.5-94.4,227.9
	c-58.3,58.3-138.9,94.4-227.9,94.4c-89,0-169.5-36.1-227.9-94.4c-58.3-58.3-94.4-138.9-94.4-227.9c0-89,36.1-169.5,94.4-227.9
	C255,138.4,335.6,102.3,424.5,102.3z M629.8,706.7l-0.5-0.7l13.9-10.7l0.5,0.7l-0.9,0.7c-0.8,0.6-1.3,1.2-1.5,1.8
	c-0.2,0.5-0.2,1,0,1.6c0.1,0.4,0.7,1.3,1.7,2.7l13.5,17.6c1.1,1.4,1.8,2.2,2.2,2.4c0.4,0.2,0.9,0.3,1.6,0.2c0.6-0.1,1.3-0.4,2.1-1
	l0.9-0.7l0.5,0.7l-13.9,10.7l-0.5-0.7l0.9-0.7c0.8-0.6,1.3-1.2,1.5-1.8c0.2-0.5,0.2-1,0.1-1.6c-0.1-0.4-0.7-1.3-1.7-2.7l-13.5-17.7
	c-1.1-1.4-1.8-2.2-2.2-2.4c-0.4-0.2-0.9-0.3-1.6-0.2c-0.6,0.1-1.3,0.4-2.1,1L629.8,706.7z M672.1,716.4l-6.3-6.5l0.6-0.6
	c1.9,1.1,3.3,1.8,4.4,2c1.1,0.2,2.3,0.1,3.4-0.3c0.6-0.2,1.5-0.9,2.7-2l1.8-1.8l-18.1-18.7c-1.2-1.2-2-2-2.5-2.2
	c-0.4-0.2-1-0.2-1.6,0c-0.6,0.2-1.3,0.5-2,1.2l-0.8,0.8l-0.6-0.6l12.6-12.2l0.6,0.6l-0.8,0.8c-0.7,0.7-1.1,1.3-1.3,2
	c-0.1,0.5-0.1,1,0.1,1.6c0.2,0.4,0.8,1.2,2,2.5l18.1,18.7l1.8-1.7c1.6-1.6,2.5-3.1,2.5-4.5c0.1-2-0.6-4-2-6l0.7-0.7l6.3,6.5
	L672.1,716.4z M711.9,673l-10.4-9l-0.4,0.5c-1.4,1.6-1.9,3.2-1.5,4.8c0.4,1.6,1.5,3.4,3.3,5.3l-0.6,0.7l-13.4-11.5l0.6-0.7
	c1.6,1.1,3.1,1.8,4.4,2.1c1.4,0.3,2.5,0.3,3.3-0.1c0.9-0.4,1.8-1.2,2.9-2.4l-7.2-6.2c-1.4-1.2-2.3-1.9-2.7-2c-0.4-0.2-0.9-0.2-1.4,0
	c-0.5,0.2-1,0.6-1.7,1.3l-1.3,1.5c-2.1,2.4-3.1,4.8-3.3,7.2c-0.1,2.4,0.7,4.9,2.4,7.4l-0.6,0.7l-7.1-8.1l19-22.1l0.7,0.6l-0.7,0.8
	c-0.6,0.7-1,1.5-1.1,2.1c-0.1,0.5,0,1,0.3,1.5c0.2,0.4,0.9,1.2,2.2,2.3l16.8,14.5c1.2,1,1.9,1.6,2.2,1.8c0.5,0.3,1.1,0.3,1.6,0.2
	c0.8-0.2,1.5-0.7,2.2-1.5l0.7-0.8l0.7,0.6l-18.4,21.4l-7.6-6.5l0.6-0.7c2.2,1.2,3.9,1.9,5.3,1.9c1.4,0,2.7-0.4,4.2-1.2
	c0.8-0.5,2.1-1.7,3.7-3.6L711.9,673z M728,657l-7.4-5.3l0.5-0.7c2,0.8,3.6,1.2,4.7,1.2c1.1,0,2.2-0.3,3.3-0.9
	c0.6-0.3,1.4-1.2,2.3-2.5l1.5-2.1l-21.3-15.1c-1.4-1-2.4-1.6-2.8-1.7c-0.5-0.1-1,0-1.6,0.2c-0.6,0.3-1.1,0.8-1.7,1.5l-0.6,0.9
	l-0.7-0.5l10.1-14.3l0.7,0.5l-0.7,0.9c-0.5,0.8-0.9,1.5-0.9,2.2c0,0.5,0.1,1,0.4,1.5c0.2,0.4,1,1.1,2.4,2l21.3,15.1l1.4-2
	c1.3-1.8,1.9-3.5,1.7-4.8c-0.3-1.9-1.3-3.8-3.1-5.5l0.6-0.8l7.4,5.3L728,657z M751.8,610.4c1.6,0.9,2.8,1.3,3.5,1.3
	c0.8,0,1.6-0.8,2.4-2.3l0.5-1l0.8,0.4l-9,15.7l-0.8-0.4l0.6-1c0.8-1.4,1-2.4,0.8-3.1c-0.3-0.7-1.3-1.6-3.1-2.6l-19.3-11
	c-1.8-1-3.1-1.5-3.9-1.3c-0.8,0.2-1.5,0.9-2.3,2.2l-0.6,1l-0.8-0.4l9-15.7l0.8,0.4l-0.5,1c-0.8,1.4-1,2.4-0.7,3.1
	c0.3,0.7,1.3,1.6,3.1,2.6l16,9.1l-10.4-19.6c-1.4-0.8-2.5-1.2-3.3-1.2c-0.8,0-1.7,0.8-2.5,2.3l-0.6,1l-0.8-0.4l8.9-15.7l0.8,0.4
	l-0.6,1c-0.8,1.4-1,2.4-0.7,3.2c0.3,0.7,1.3,1.6,3.1,2.6l19.3,11c1.8,1,3,1.5,3.8,1.4c0.7,0,1.5-0.8,2.4-2.4l0.6-1l0.8,0.4l-9,15.7
	l-0.7-0.4l0.6-1c0.8-1.3,1-2.4,0.6-3.1c-0.3-0.8-1.3-1.7-3-2.6l-16.1-9.2L751.8,610.4z M774.9,580.5l-10.9-4.2l0.4-0.9
	c3.1,0.4,5.8,0,8-1.3c2.2-1.3,3.8-3.1,4.7-5.4c0.8-1.9,0.9-4,0.4-6c-0.5-2.1-1.5-3.8-3.1-5.3c-2-1.9-4.4-3.3-7.3-4.4
	c-2.8-1.1-5.5-1.7-8.1-1.9c-2.6-0.2-4.8,0.3-6.5,1.3c-1.8,1.1-3.1,2.8-4,5.2c-0.8,2-1,3.9-0.8,5.9c0.2,2,1.1,4.3,2.5,6.9l-2.7-1
	c-1.2-2.5-1.8-4.8-1.9-7c-0.1-2.2,0.3-4.6,1.3-7.2c1.3-3.4,3.1-6.1,5.4-8.2c2.3-2.1,5.1-3.4,8.1-3.8c3.1-0.5,6-0.1,8.9,1
	c3,1.2,5.6,3,7.6,5.6c2.1,2.6,3.4,5.5,3.8,8.8c0.5,3.2,0.1,6.3-1,9.3c-0.9,2.2-2.2,4.3-4.1,6.4c-1.1,1.2-1.7,2-1.9,2.4
	c-0.2,0.5-0.2,1,0,1.5c0.2,0.5,0.7,1,1.5,1.4L774.9,580.5z M775.2,519.7l-9-2.6c-1.8-0.5-2.9-0.7-3.4-0.6c-0.5,0.1-1,0.3-1.4,0.8
	c-0.4,0.5-0.9,1.4-1.3,2.9l-0.8-0.2l4.8-16.5l0.8,0.2c-0.4,1.5-0.6,2.6-0.5,3.2c0.1,0.6,0.4,1.1,0.8,1.5c0.4,0.4,1.5,0.8,3.2,1.3
	l21.1,6.1c1.8,0.5,2.9,0.7,3.4,0.6c0.5-0.1,1-0.3,1.4-0.8c0.4-0.5,0.9-1.4,1.3-2.9l0.8,0.2l-4.1,14.1c-1.4,4.7-3.2,7.8-5.4,9.3
	c-2.2,1.5-4.6,1.9-7.1,1.2c-2.1-0.6-3.7-1.8-4.8-3.5c-1.1-1.7-1.6-3.8-1.5-6.3C773.6,526.1,774.1,523.4,775.2,519.7z M791.1,524.4
	l-14-4.1c-0.2,0.5-0.3,0.9-0.4,1.2c-0.6,2-0.4,3.6,0.4,5c0.8,1.4,2.5,2.4,4.9,3.1c2.4,0.7,4.3,0.7,5.7,0c1.4-0.7,2.4-2.2,3-4.2
	L791.1,524.4z M799.8,484.6l-13.6-2.3l-0.1,0.7c-0.4,2.1,0.1,3.8,1.2,4.9c1.2,1.2,3,2.1,5.5,2.8l-0.2,1l-17.4-2.9l0.2-1
	c1.9,0.1,3.6,0,4.9-0.5c1.3-0.4,2.3-1,2.8-1.8c0.6-0.8,1-1.9,1.2-3.5l-9.3-1.6c-1.8-0.3-3-0.4-3.4-0.3c-0.4,0.1-0.8,0.3-1.2,0.7
	c-0.3,0.4-0.6,1.1-0.7,2l-0.3,2c-0.5,3.1-0.2,5.7,0.9,7.8c1.1,2.1,3.1,3.8,5.9,5.1l-0.1,0.9l-10.3-3.3l4.8-28.7l0.8,0.1l-0.2,1.1
	c-0.2,1-0.1,1.8,0.1,2.4c0.2,0.5,0.5,0.9,1,1.2c0.4,0.2,1.4,0.5,3.1,0.8l21.9,3.7c1.5,0.3,2.4,0.4,2.8,0.3c0.6-0.1,1.1-0.3,1.5-0.7
	c0.6-0.5,1-1.3,1.1-2.4l0.2-1.1l0.8,0.1l-4.7,27.8l-9.8-1.7l0.2-1c2.5-0.1,4.3-0.4,5.5-1.1c1.2-0.7,2.2-1.8,2.9-3.2
	c0.5-0.9,0.9-2.5,1.3-5.1L799.8,484.6z M789.6,451.8c-1,3.1-2.1,5.3-3.2,6.5c-1.7,1.8-3.7,2.5-6.1,2.4c-2.5-0.2-4.6-1.4-6.1-3.5
	c-1.8-2.6-2.5-6.4-2.2-11.1l1.3-17.1l0.9,0.1c-0.1,1.6,0,2.6,0.2,3.2c0.2,0.6,0.6,1,1,1.2c0.4,0.3,1.6,0.5,3.4,0.6l21.9,1.7
	c1.8,0.1,3,0.1,3.5-0.1c0.5-0.2,0.9-0.6,1.2-1.1c0.3-0.5,0.5-1.6,0.7-3.1l0.9,0.1l-1.2,16.1c-0.3,3.9-0.9,6.5-1.7,8.1
	c-0.8,1.6-1.9,2.7-3.4,3.6c-1.4,0.8-2.9,1.2-4.4,1c-1.6-0.1-3-0.8-4.2-2.1C791,457,790.1,454.9,789.6,451.8z M791,442.8
	c-0.2,2.4,0,4.1,0.4,5.3c0.4,1.2,1.1,2.1,2,2.8c0.9,0.7,2.1,1.1,3.6,1.2c1.5,0.1,2.7-0.1,3.7-0.6c1-0.5,1.8-1.3,2.4-2.4
	c0.6-1.1,1-2.8,1.1-5.2L791,442.8z M789,442.7l-10.8-0.8l-1.2-0.1c-0.9-0.1-1.6,0.1-2.1,0.5c-0.5,0.4-0.8,1.1-0.8,1.9
	c-0.1,1.3,0.1,2.5,0.6,3.7c0.5,1.1,1.3,2,2.4,2.7c1.1,0.7,2.3,1.1,3.6,1.2c1.6,0.1,3-0.1,4.3-0.7c1.3-0.6,2.2-1.5,2.8-2.7
	C788.5,447.2,788.9,445.3,789,442.7z M800.7,408.7c1.8-0.2,3-0.5,3.6-0.9c0.6-0.5,0.8-1.5,0.7-3.2l-0.1-1.1l0.9-0.1l1.4,18l-0.9,0.1
	l-0.1-1.2c-0.1-1.6-0.5-2.6-1.1-3c-0.6-0.5-2-0.6-4-0.5l-22.2,1.7c-2.1,0.2-3.4,0.5-3.9,1.1c-0.5,0.6-0.8,1.6-0.7,3.2l0.1,1.2
	l-0.9,0.1l-1.4-18l0.9-0.1l0.1,1.1c0.1,1.6,0.5,2.6,1.2,3c0.7,0.4,2,0.6,4,0.4l18.3-1.4L777,398.6c-1.6,0.1-2.8,0.4-3.4,0.9
	c-0.7,0.4-0.9,1.5-0.8,3.3l0.1,1.2L772,404l-1.4-18l0.9-0.1l0.1,1.1c0.1,1.6,0.5,2.6,1.2,3c0.7,0.5,2,0.6,4,0.4l22.2-1.7
	c2.1-0.1,3.4-0.5,3.9-0.9c0.6-0.4,0.8-1.6,0.7-3.3l-0.1-1.1l0.9-0.1l1.4,18l-0.9,0.1l-0.1-1.2c-0.1-1.5-0.5-2.5-1.2-3
	c-0.7-0.5-2-0.6-3.9-0.5l-18.5,1.4L800.7,408.7z M782,353.4l-10.3,1.7c-1.7,0.3-2.8,0.6-3.2,0.8c-0.4,0.3-0.7,0.7-0.9,1.3
	c-0.2,0.6-0.3,1.4-0.1,2.3l0.2,1.1l-0.9,0.1l-2.9-17.3l0.8-0.1l0.2,1.1c0.2,1,0.5,1.7,0.9,2.2c0.3,0.4,0.8,0.6,1.4,0.8
	c0.4,0.1,1.5,0,3.2-0.3l21.9-3.7c1.7-0.3,2.8-0.6,3.2-0.8c0.4-0.3,0.7-0.7,0.9-1.3c0.2-0.6,0.3-1.4,0.1-2.3l-0.2-1.1l0.8-0.1
	l2.9,17.3l-0.8,0.1l-0.2-1.1c-0.2-1-0.5-1.7-0.9-2.2c-0.3-0.4-0.8-0.7-1.4-0.8c-0.4-0.1-1.5,0-3.1,0.3l-9.4,1.6l2,11.8l9.4-1.6
	c1.7-0.3,2.8-0.6,3.2-0.8c0.4-0.3,0.7-0.7,0.9-1.3c0.2-0.6,0.3-1.4,0.1-2.3l-0.2-1.1l0.9-0.1l2.9,17.3l-0.8,0.1l-0.2-1.1
	c-0.2-1-0.5-1.7-0.9-2.2c-0.3-0.4-0.8-0.6-1.4-0.8c-0.4-0.1-1.5,0-3.2,0.2l-21.9,3.7c-1.7,0.3-2.8,0.6-3.2,0.8
	c-0.4,0.2-0.7,0.7-0.9,1.3c-0.2,0.6-0.3,1.4-0.1,2.3l0.2,1.1l-0.8,0.2l-2.9-17.3l0.9-0.1l0.2,1.1c0.2,1,0.5,1.7,0.9,2.2
	c0.3,0.4,0.8,0.7,1.4,0.8c0.4,0.1,1.5,0,3.1-0.2l10.3-1.7L782,353.4z M791.4,318.4l3.1,10.8l-0.8,0.2c-0.4-1.1-1.1-1.9-2-2.4
	c-0.9-0.5-2.7-1-5.3-1.5l-22.7-4.3c-3.6-0.7-5.9-1.5-6.9-2.4c-1.1-0.9-1.8-2.2-2.3-3.8c-0.5-1.7-0.4-3.2,0.3-4.3
	c0.7-1.2,1.6-1.9,2.8-2.2c0.9-0.3,1.8-0.2,2.6,0.3c0.8,0.4,1.3,1.1,1.6,2c0.2,0.9,0.2,1.6-0.1,2.1c-0.3,0.5-1,1-2.2,1.5
	c-1.3,0.6-1.8,1.3-1.6,2.3c0.3,1.1,1.7,1.9,4.1,2.2l1,0.2l17.7-17.7c1.5-1.5,2.4-2.7,2.7-3.6c0.3-0.9,0.3-2,0-3.4l0.8-0.2l4.7,16.1
	l-0.8,0.2L788,310c-0.5-1.9-1.3-2.7-2.2-2.4c-0.3,0.1-0.8,0.4-1.4,1l-12.4,12.4l13.8,2.6c1.9,0.4,3.2,0.4,4,0.2
	c0.5-0.2,0.9-0.5,1.1-1.1c0.2-0.6,0-1.9-0.5-4L791.4,318.4z M732.4,283.2l-0.4-0.8c5.2-4.2,6.4-8.8,3.8-13.8l8.2-12.2
	c0.9-1.3,1.3-2.1,1.5-2.4c0.2-0.7,0-1.5-0.5-2.6l-10.1,5.4c-1.4,0.8-2.2,1.6-2.3,2.6c-0.1,0.7,0.3,1.8,1.2,3.4l-0.8,0.4l-8.3-15.5
	l0.8-0.4c0.9,1.6,1.7,2.6,2.5,2.9c0.8,0.3,2,0.1,3.6-0.8l19.9-10.6c1.7-0.9,2.7-1.7,3.1-2.3c0.5-0.9,0.3-2.1-0.5-3.6l-0.3-0.6
	l0.8-0.4l8.3,15.5l-0.8,0.4l-0.3-0.5c-0.8-1.5-1.6-2.3-2.4-2.5c-0.8-0.2-2,0.1-3.5,0.9l-8.9,4.7c1,1.8,1.5,2.8,1.7,3.1
	c0.8,1.1,1.7,1.7,2.8,1.9c0.9,0.2,2.5,0,4.7-0.5c2.2-0.5,3.8-0.8,4.9-0.9c1.9-0.2,3.5,0.1,4.8,0.8c1.1,0.6,2.1,1.6,2.8,3
	c0.7,1.3,0.9,2.6,0.6,3.8c-0.3,1.3-1,2.3-2.3,3c-0.9,0.5-1.7,0.6-2.6,0.3c-0.8-0.3-1.5-0.8-2-1.7c-0.9-1.7-0.4-3.1,1.5-4.2
	c0.9-0.6,1.2-1.2,0.9-1.8c-0.6-1.2-2.9-1.3-6.8-0.5c-2.1,0.5-3.4,0.7-4.1,0.8c-1.6,0.2-3,0.1-4.1-0.3c0.4,1.7,0.3,3.3-0.5,4.8
	c-0.1,0.2-1.2,2-3.2,5.1l-3.8,5.9c-0.5,0.9-0.8,1.7-0.9,2.6c0,0.9,0.2,1.8,0.6,2.7L732.4,283.2z M717.1,203.2l2.5,3.7
	c2.8,3.9,4.1,7.3,3.9,10c-0.1,2.8-1.4,4.9-3.7,6.6c-1.6,1.1-3.2,1.6-5,1.5c-1.8-0.1-3.4-0.6-4.9-1.6c-1.5-1-3.2-2.8-5-5.4
	l-10.4-14.8l0.7-0.5c1.2,1.7,2.2,2.6,3,2.8c0.8,0.2,1.9-0.2,3.4-1.3l18.4-12.8c2-1.4,3.1-2.4,3.2-3.1c0.2-0.7-0.3-1.9-1.5-3.7
	l0.7-0.5l10,14.2l-0.7,0.5c-0.9-1.3-1.7-2.1-2.2-2.3c-0.5-0.3-1-0.4-1.5-0.3c-0.5,0.1-1.4,0.6-2.8,1.5L717.1,203.2z M715.3,204.4
	l-8.3,5.8c-1.3,0.9-2.1,1.8-2.4,2.5c-0.3,0.7-0.1,1.6,0.6,2.6c1.1,1.6,2.5,2.4,4.1,2.5c1.6,0.1,3.3-0.5,4.9-1.6
	c1.5-1.1,2.6-2.4,3.1-3.8s0.6-2.8,0.3-3.8C717.2,207.5,716.4,206.1,715.3,204.4z M722.8,242l-0.7,0.5l-10.1-14.4l0.7-0.5l0.6,0.9
	c0.6,0.9,1.2,1.4,1.8,1.6c0.6,0.2,1.1,0.3,1.6,0.1c0.5-0.2,1.4-0.7,2.7-1.6l18.2-12.7c1.3-0.9,2.1-1.6,2.4-1.9
	c0.3-0.4,0.4-0.9,0.4-1.6c0-0.7-0.3-1.4-0.9-2.3l-0.6-0.9l0.7-0.5l10.1,14.4l-0.7,0.5l-0.6-0.9c-0.6-0.9-1.2-1.4-1.8-1.6
	c-0.6-0.2-1.1-0.3-1.6-0.1c-0.5,0.1-1.4,0.7-2.7,1.6l-18.2,12.8c-1.3,0.9-2.1,1.6-2.4,1.9c-0.3,0.4-0.4,0.9-0.4,1.6
	c0,0.7,0.3,1.4,0.9,2.3L722.8,242z M713.8,176.3c-1.2-1.3-2.3-2-3.1-2c-0.8,0-1.8,0.6-2.9,1.7l-17.1,16.1c-1.3,1.2-2,2.2-2,3
	c0,0.7,0.6,1.8,1.9,3.2L690,199l-11.6-12.3l0.6-0.6c0.9,1,1.7,1.6,2.2,1.9c0.6,0.2,1.1,0.3,1.6,0.1c0.5-0.2,1.3-0.7,2.3-1.6
	l19.2-18.2l-5.6-5.9l-7.3,6.9c-3.1,2.9-5.5,5-7.2,6.4c-1.7,1.4-3.7,2.4-5.7,3.1c-2.1,0.7-4,0.8-5.7,0.4c-1.7-0.4-3.2-1.2-4.4-2.5
	c-1.1-1.2-1.7-2.4-1.7-3.6c0-1.2,0.5-2.3,1.4-3.1c0.8-0.7,1.6-1.1,2.4-1.2c0.9-0.1,1.7,0.3,2.4,1c1.3,1.4,1.2,3-0.4,4.7
	c-0.7,0.8-0.8,1.5-0.3,2c0.7,0.8,2,1.1,3.8,1c1.8-0.1,3.8-0.9,5.8-2.3c2-1.4,4.8-3.7,8.2-6.9l4.6-4.4c1.3-1.3,2.1-2.2,2.4-2.8
	c0.3-0.6,0.3-1.2,0.1-1.9c-0.2-0.7-0.9-1.6-2-2.8l0.6-0.6l18.8,19.9L713.8,176.3z M657,152.7l-8.8-7.8l-3.3,1.5
	c-1.1,0.5-1.8,1.1-2.3,1.6c-0.6,0.7-0.8,1.5-0.5,2.3c0.2,0.5,0.9,1.4,2.1,2.6l-0.6,0.6l-8.4-7.4l0.6-0.6c1,0.7,2.1,0.9,3.2,0.8
	c1.1-0.1,3-0.7,5.6-1.9l26.8-12.2l0.3,0.3l-9.2,28.8c-0.9,2.8-1.3,4.6-1.2,5.6c0.1,0.8,0.5,1.5,1.2,2.3l-0.6,0.6l-12.2-10.8l0.6-0.6
	l0.5,0.4c1,0.9,1.8,1.3,2.4,1.4c0.5,0,0.8-0.1,1.2-0.5c0.2-0.2,0.4-0.5,0.5-0.8c0.1-0.1,0.3-0.8,0.7-1.9L657,152.7z M657.6,150.8
	l3.8-11.9l-11.5,5.2L657.6,150.8z M619.5,96.1l14.8,9.5l-0.5,0.7l-0.5-0.3c-1.4-0.9-2.5-1.2-3.3-1c-0.8,0.2-1.7,1.1-2.6,2.5L622,116
	c2,1.2,3.3,2,3.9,2.2c0.7,0.2,1.5,0.2,2.4-0.1c0.9-0.3,2.2-1.2,3.8-2.7c1.9-1.8,3.4-3,4.6-3.7c1.2-0.7,2.4-1.1,3.7-1.2
	c1.3,0,2.6,0.4,4,1.2c1.3,0.9,2.2,1.9,2.5,3.2c0.3,1.3,0.1,2.5-0.6,3.6c-0.6,0.9-1.3,1.4-2.1,1.5c-0.9,0.2-1.7,0-2.5-0.5
	c-1.6-1-1.8-2.5-0.8-4.4c0.5-1,0.5-1.6-0.1-2c-0.6-0.4-1.4-0.4-2.3,0c-0.9,0.4-2.2,1.4-3.9,2.9c-1.7,1.5-3,2.6-3.9,3.2
	c-0.9,0.7-1.9,1.1-3,1.3c0.8,0.8,1.2,1.5,1.5,2.2c0.2,0.7,0.4,1.4,0.4,2.2c0,0.8-0.1,2.8-0.3,6l-0.4,7c0,1.1,0.1,2,0.5,2.7
	c0.4,0.8,1,1.4,1.9,2l-0.5,0.7l-9.5-6.1l1.1-14.6c0.1-1.7,0.1-2.7,0-3.2c-0.1-0.5-0.7-1-1.6-1.7l-6.2,9.6c-0.9,1.4-1.2,2.4-0.8,3.2
	c0.3,0.7,1.2,1.6,2.8,2.6l-0.5,0.7l-14.8-9.5l0.5-0.7c1.6,1,2.9,1.5,3.7,1.3c0.8-0.1,1.7-1,2.7-2.5l12.2-19c1.1-1.7,1.6-2.9,1.6-3.8
	c0-0.8-0.8-1.7-2.2-2.6l-0.6-0.4L619.5,96.1z M598.4,91.1c0.8-1.6,1.2-2.8,1.1-3.6c-0.1-0.8-0.9-1.5-2.4-2.3l-1-0.5l0.4-0.8l16,8.4
	l-0.4,0.8l-1-0.5c-1.4-0.7-2.5-0.9-3.2-0.6c-0.7,0.3-1.6,1.3-2.5,3.2l-10.3,19.7c-1,1.8-1.4,3.1-1.2,3.9c0.2,0.8,1,1.5,2.3,2.2
	l1,0.5l-0.4,0.8l-16-8.4l0.4-0.8l1,0.5c1.4,0.7,2.4,0.9,3.2,0.6c0.7-0.3,1.5-1.4,2.5-3.2l8.5-16.3l-19.2,11.1
	c-0.8,1.4-1.1,2.5-1.1,3.4c0,0.8,0.8,1.6,2.4,2.4l1,0.5l-0.4,0.8l-16-8.4l0.4-0.8l1,0.5c1.4,0.7,2.5,0.9,3.2,0.6
	c0.7-0.3,1.6-1.4,2.5-3.2L580.5,82c1-1.8,1.4-3.1,1.3-3.8c-0.1-0.7-0.9-1.5-2.5-2.3l-1-0.5l0.4-0.8l16,8.4l-0.4,0.8l-1-0.5
	c-1.3-0.7-2.4-0.9-3.2-0.5c-0.8,0.3-1.6,1.4-2.5,3.1l-8.6,16.4L598.4,91.1z M540.4,60.8l28.2,9.6l-2.9,8.7l-0.8-0.3
	c0.3-2.3,0.4-3.9,0.1-5c-0.3-1.1-0.8-1.9-1.6-2.4c-0.8-0.5-2.4-1.2-4.9-2.1l-6.5-2.2l-8.4,24.8c-0.6,1.8-0.7,3.1-0.4,3.8
	c0.4,0.7,1.2,1.2,2.6,1.7l0.8,0.3l-0.3,0.8l-16.6-5.6l0.3-0.8l0.9,0.3c1.4,0.5,2.4,0.5,3.1,0.2c0.7-0.4,1.3-1.4,1.9-3.2l7.5-22
	c0.5-1.5,0.7-2.6,0.4-3.3c-0.2-0.8-1-1.4-2.5-1.9l-1-0.3L540.4,60.8z M513.2,52.8c5.3,1,9.2,3.5,11.7,7.5c2.5,4,3.3,8.4,2.1,13.3
	c-1,4.2-3,7.5-6.2,10.2c-4.2,3.5-9.2,4.5-15.1,3.2c-5.9-1.3-10-4.4-12.4-9.1c-1.8-3.7-2.3-7.8-1.3-12.1c1.1-4.9,3.7-8.6,7.8-11.1
	C504,52.1,508.4,51.5,513.2,52.8z M513.2,54.4c-3-0.7-5.7,0.3-7.9,3c-1.9,2.2-3.3,5.7-4.4,10.4c-1.3,5.6-1.2,10,0.1,13.1
	c1,2.2,2.7,3.6,5.1,4.1c1.7,0.4,3.2,0.3,4.5-0.2c1.6-0.7,3.1-2.1,4.5-4.2c1.3-2.1,2.4-4.9,3.2-8.6c1-4.3,1.3-7.7,1-10
	c-0.3-2.3-1-4.1-2.1-5.3C516.2,55.5,514.8,54.8,513.2,54.4z M458,43.9l29.5,4l-1.2,9.1l-0.9-0.1c-0.1-2.3-0.4-3.9-0.9-4.9
	c-0.5-1-1.2-1.7-2-2.1c-0.9-0.4-2.6-0.7-5.2-1.1l-6.8-0.9l-3.6,26c-0.3,1.9-0.2,3.2,0.3,3.8c0.5,0.6,1.4,1,2.9,1.2l0.9,0.1l-0.1,0.9
	l-17.4-2.4l0.1-0.8l0.9,0.1c1.4,0.2,2.5,0.1,3.1-0.4c0.6-0.5,1-1.6,1.3-3.5l3.2-23c0.2-1.5,0.1-2.7-0.2-3.4
	c-0.3-0.7-1.3-1.2-2.8-1.4l-1.1-0.2L458,43.9z M433.4,67.4l-11.8-0.2l-1.5,3.3c-0.5,1.1-0.7,2-0.7,2.7c0,1,0.4,1.7,1.1,2.1
	c0.4,0.3,1.5,0.5,3.3,0.6l0,0.9l-11.2-0.2l0-0.9c1.2-0.2,2.2-0.7,3-1.5c0.8-0.8,1.8-2.5,3-5.1L431,42.5l0.5,0l11.7,27.8
	c1.1,2.7,2,4.4,2.8,5c0.6,0.5,1.4,0.8,2.4,0.9l0,0.9L432,77l0-0.9l0.7,0c1.3,0,2.2-0.1,2.8-0.5c0.4-0.3,0.5-0.6,0.6-1.1
	c0-0.3,0-0.6-0.1-0.9c0-0.1-0.3-0.8-0.7-1.9L433.4,67.4z M432.6,65.5l-4.9-11.6l-5.3,11.4L432.6,65.5z M377.2,45.1L405,43l0.1,0.9
	c-2,0.2-3.3,0.6-3.8,1.2c-0.5,0.6-0.7,1.8-0.6,3.6l1.7,22.5c0.1,1.4,0.3,2.4,0.5,2.9c0.2,0.5,0.8,1,1.5,1.3c0.8,0.3,1.8,0.4,3,0.3
	l0.8,10.7l-0.9,0.1c-0.4-2.9-1.7-5.2-3.7-6.8c-2.1-1.7-4.8-2.4-8.1-2.1l-9.2,0.7c-3.5,0.3-6.2,1.3-8.1,3.2c-2,1.8-3,4.4-3.1,7.5
	l-0.9,0.1l-0.8-10.7c4-1.1,6.7-4.2,8.1-9c1.4-4.8,1.8-11.2,1.2-19.1c-0.1-1.9-0.6-3.1-1.3-3.7c-0.7-0.5-2.1-0.7-4.3-0.6L377.2,45.1z
	 M393.2,46.1l-8.4,0.6l0.2,2.9c0.3,4,0.3,8,0.1,11.9c-0.3,3.9-0.8,6.9-1.5,9.2c-0.8,2.3-1.9,4.2-3.4,5.8l12-0.9
	c1.6-0.1,2.6-0.3,2.8-0.6c0.3-0.2,0.4-1,0.3-2.2L393.2,46.1z M343.5,53.2l3.1,13.4l0.6-0.2c2.1-0.5,3.5-1.5,4.1-3
	c0.6-1.5,0.8-3.6,0.5-6.2l0.9-0.2l4,17.2l-0.9,0.2c-0.6-1.8-1.4-3.3-2.3-4.3c-0.9-1-1.8-1.7-2.7-1.9c-0.9-0.2-2.2-0.2-3.7,0.2
	l2.1,9.2c0.4,1.8,0.7,2.9,1,3.3c0.2,0.4,0.6,0.6,1.1,0.8c0.5,0.2,1.2,0.1,2.1-0.1l2-0.5c3.1-0.7,5.4-2,6.9-3.8
	c1.5-1.8,2.4-4.3,2.5-7.4l0.9-0.2l0.9,10.8l-28.4,6.5l-0.2-0.8l1.1-0.2c1-0.2,1.7-0.6,2.2-1c0.4-0.3,0.6-0.8,0.7-1.4
	c0.1-0.4-0.1-1.5-0.5-3.1l-5-21.7c-0.4-1.5-0.6-2.4-0.8-2.7c-0.3-0.5-0.7-0.9-1.2-1.1c-0.7-0.3-1.6-0.4-2.7-0.1l-1.1,0.2l-0.2-0.8
	l27.5-6.3l2.2,9.7l-0.9,0.2c-1-2.3-2.1-3.8-3.1-4.7c-1.1-0.8-2.4-1.3-4.1-1.5c-1-0.1-2.7,0.2-5.2,0.7L343.5,53.2z M315.7,93.7
	l-0.3-0.8l1-0.3c1.6-0.5,2.4-1.1,2.6-1.9c0.2-0.8,0-2.1-0.6-3.8l-7.8-24.6l-11.3,3.6l7.8,24.6c0.7,2.1,1.3,3.3,2,3.6
	c0.7,0.4,1.7,0.3,3-0.1l1-0.3l0.3,0.8l-16.7,5.3l-0.3-0.8l1-0.3c1.4-0.4,2.3-1,2.5-1.7c0.3-0.7,0.1-2-0.5-4.1l-6.7-21.2
	c-0.6-1.9-1.2-3.1-1.8-3.6c-0.6-0.4-1.7-0.4-3.1,0l-1,0.3l-0.3-0.8l35.8-11.4l0.3,0.8l-0.8,0.3c-1.5,0.5-2.4,1.1-2.7,1.8
	c-0.3,0.7-0.1,2.1,0.5,4l6.7,21.2c0.7,2.1,1.3,3.3,2,3.6c0.7,0.3,1.8,0.3,3.2-0.2l0.7-0.2l0.3,0.8L315.7,93.7z M249.2,106.5l4.6,8.2
	c0.9,1.6,1.6,2.6,2,2.9c0.4,0.3,1,0.4,1.6,0.4c0.6,0,1.6-0.4,3-1.2l0.4,0.8l-15,8.4l-0.4-0.8c1.4-0.8,2.2-1.4,2.6-1.9
	c0.3-0.5,0.5-1.1,0.5-1.6c0-0.5-0.5-1.6-1.4-3.2l-10.8-19.1c-0.9-1.6-1.6-2.5-2-2.9c-0.4-0.3-0.9-0.4-1.6-0.4c-0.6,0-1.6,0.4-3,1.2
	l-0.4-0.8l12.8-7.2c4.2-2.4,7.7-3.3,10.4-2.9c2.7,0.5,4.7,1.8,5.9,4.1c1.1,1.9,1.4,3.9,1,5.9c-0.4,2-1.5,3.9-3.3,5.5
	C254.8,103.1,252.6,104.6,249.2,106.5z M241.1,92.1l7.2,12.7c0.5-0.2,0.9-0.4,1.1-0.6c1.8-1,2.8-2.3,3.2-3.9
	c0.4-1.6-0.1-3.5-1.3-5.7c-1.2-2.2-2.6-3.5-4.1-4c-1.5-0.5-3.2-0.2-5.1,0.9L241.1,92.1z M222.9,128.9l-9.7,6.8l0.7,3.5
	c0.2,1.2,0.6,2,1,2.6c0.6,0.8,1.3,1.1,2.1,1.1c0.5,0,1.5-0.5,3.1-1.4l0.5,0.7l-9.2,6.4l-0.5-0.7c0.9-0.8,1.4-1.8,1.6-2.9
	c0.2-1.1,0-3.1-0.6-5.9l-5.5-28.9l0.4-0.3l25.8,15.7c2.5,1.5,4.2,2.3,5.2,2.5c0.8,0.1,1.6-0.1,2.5-0.6l0.5,0.7l-13.4,9.3l-0.5-0.7
	l0.5-0.4c1.1-0.8,1.7-1.4,1.9-2c0.1-0.4,0.1-0.8-0.2-1.3c-0.2-0.2-0.4-0.5-0.7-0.7c-0.1-0.1-0.7-0.5-1.7-1.1L222.9,128.9z
	 M221.2,127.9l-10.7-6.5l2.4,12.4L221.2,127.9z M164.9,144.8l21.1-18.1l0.6,0.7c-1.5,1.4-2.3,2.5-2.4,3.2c-0.1,0.8,0.5,1.9,1.7,3.3
	l14.7,17.2c0.9,1.1,1.7,1.8,2.2,2c0.5,0.3,1.2,0.3,2,0.1c0.8-0.2,1.7-0.7,2.6-1.5l7,8.1l-0.6,0.6c-2.1-2.1-4.4-3.2-7-3.3
	c-2.6-0.1-5.2,0.9-7.8,3.1l-7,6c-2.6,2.3-4.2,4.7-4.7,7.4c-0.5,2.7,0.2,5.3,2,7.9l-0.7,0.6l-7-8.1c2.5-3.3,2.9-7.3,1.2-12.1
	c-1.7-4.7-5.2-10.1-10.4-16.1c-1.2-1.4-2.3-2.2-3.2-2.2c-0.9,0-2.2,0.7-3.8,2.1L164.9,144.8z M178.4,136.1l-6.4,5.5l1.9,2.2
	c2.6,3.1,5,6.2,7.1,9.5c2.1,3.3,3.5,6,4.2,8.3c0.7,2.3,1,4.5,0.8,6.7l9.1-7.8c1.2-1.1,1.9-1.8,2-2.1c0.1-0.4-0.3-1-1.1-1.9
	L178.4,136.1z M147.9,175.8l-7.5-7.1l0.6-0.7c1,0.7,1.7,0.8,2.2,0.2c0.2-0.2,0.5-0.8,0.8-1.6c0.9-2.2,2-4,3.4-5.5
	c2.4-2.5,4.8-3.9,7.4-4.1c2.5-0.2,4.6,0.5,6.2,2c0.8,0.7,1.4,1.6,1.8,2.7c0.4,1.1,0.6,2.3,0.5,3.7c-0.1,1.4-0.8,3.2-2,5.5
	c2.9-2.2,5.5-3.2,7.7-3.1c2.2,0.1,4.1,0.9,5.5,2.2c1.2,1.2,2.1,2.6,2.5,4.4c0.4,1.8,0.2,3.6-0.5,5.5c-0.7,1.9-2.1,3.9-4.1,6
	c-1.9,2-3.7,3.4-5.4,4c-1.7,0.7-3.6,0.9-5.7,0.6l0-1.5c3.4,0,5.9-0.9,7.7-2.7c1.4-1.5,2.1-3.2,1.9-5c-0.2-1.8-1-3.4-2.6-4.9
	c-1.2-1.1-2.5-1.9-3.9-2.2c-1.4-0.3-2.6-0.2-3.6,0.4c-1,0.5-2.3,1.5-3.8,3l-1.6-1.5c0.4-0.4,0.8-0.8,1-1c1.6-1.7,2.3-3.3,2-4.9
	c-0.3-1.6-1.3-3.2-3.1-4.9c-1.7-1.6-3.3-2.4-4.7-2.4c-1.4,0-2.6,0.5-3.5,1.5c-1.3,1.4-1.8,2.9-1.5,4.8c0.3,1.8,1.3,3.7,3.1,5.6
	L147.9,175.8z M124,213.7l2.8-3.5c3-3.8,5.8-6,8.4-6.7c2.7-0.7,5.1-0.1,7.3,1.6c1.5,1.2,2.5,2.6,2.9,4.4c0.4,1.7,0.4,3.5-0.1,5.2
	c-0.5,1.7-1.7,3.9-3.7,6.4l-11.1,14.2l-0.7-0.5c1.3-1.7,1.9-2.9,1.8-3.7c-0.1-0.8-0.8-1.7-2.2-2.9l-17.6-13.8
	c-1.9-1.5-3.2-2.2-3.9-2.1c-0.7,0.1-1.7,0.9-3.1,2.5l-0.7-0.5l10.7-13.7l0.7,0.5c-1,1.3-1.5,2.2-1.6,2.8c-0.1,0.6,0,1.1,0.1,1.5
	c0.2,0.4,0.9,1.2,2.2,2.2L124,213.7z M125.8,215.1l8,6.3c1.3,1,2.3,1.5,3.1,1.6c0.8,0,1.6-0.4,2.3-1.4c1.2-1.5,1.6-3.1,1.1-4.7
	c-0.4-1.6-1.4-3-2.9-4.2c-1.5-1.2-3-1.8-4.6-1.9c-1.6-0.1-2.8,0.2-3.8,0.9C128.1,212.4,127,213.5,125.8,215.1z M159.5,196.9l0.7,0.5
	l-10.8,13.8l-0.7-0.5l0.7-0.9c0.6-0.8,1-1.6,1.1-2.2c0-0.6-0.1-1.2-0.4-1.6c-0.3-0.4-1.1-1.1-2.3-2.1l-17.5-13.7
	c-1.2-1-2.1-1.6-2.5-1.7c-0.4-0.2-1-0.2-1.6,0.1c-0.6,0.2-1.3,0.7-1.9,1.5l-0.7,0.9l-0.7-0.5l10.8-13.8l0.7,0.5l-0.7,0.9
	c-0.6,0.8-1,1.6-1,2.2c-0.1,0.6,0.1,1.2,0.4,1.6c0.3,0.4,1.1,1.1,2.3,2.1l17.5,13.7c1.2,1,2.1,1.6,2.5,1.7c0.5,0.2,1,0.2,1.7-0.1
	c0.6-0.2,1.3-0.7,1.9-1.5L159.5,196.9z M137.4,245.7l-0.4,0.8c-6.3-2.1-10.9-0.7-13.7,4.2l-14.7-0.4c-1.5-0.1-2.5,0-2.8,0.1
	c-0.7,0.2-1.3,0.8-1.9,1.8l9.9,5.7c1.4,0.8,2.6,1,3.4,0.6c0.6-0.3,1.4-1.3,2.2-2.8l0.8,0.4l-8.7,15.3l-0.8-0.4
	c0.9-1.6,1.3-2.9,1.2-3.6c-0.2-0.9-1-1.8-2.6-2.7l-19.6-11.2c-1.7-0.9-2.8-1.4-3.6-1.4c-1,0.1-1.9,0.8-2.8,2.4l-0.3,0.6l-0.8-0.4
	l8.7-15.3l0.7,0.4l-0.3,0.5c-0.8,1.4-1.1,2.5-0.8,3.3c0.3,0.8,1.1,1.6,2.6,2.5l8.8,5c1-1.8,1.6-2.8,1.7-3.1c0.5-1.2,0.5-2.3,0.1-3.3
	c-0.4-0.9-1.3-2.1-2.9-3.7c-1.6-1.6-2.7-2.8-3.4-3.6c-1.2-1.5-1.8-3-1.9-4.5c-0.1-1.3,0.2-2.6,1-4c0.7-1.3,1.7-2.1,2.9-2.6
	c1.3-0.5,2.5-0.4,3.8,0.4c0.9,0.5,1.4,1.2,1.6,2c0.2,0.9,0.1,1.7-0.4,2.6c-0.9,1.6-2.4,2-4.4,1c-1-0.5-1.7-0.4-2,0.2
	c-0.7,1.2,0.4,3.2,3.2,6c1.5,1.5,2.4,2.5,2.9,3c1.1,1.3,1.7,2.5,2,3.6c1.2-1.3,2.7-2,4.3-2.1c0.3,0,2.3,0,6.1,0l7,0.1
	c1,0,1.9-0.2,2.7-0.7c0.8-0.4,1.4-1.1,1.9-2L137.4,245.7z M109.9,300.6l-0.3,0.8c-6.6-1-10.9,1.1-12.8,6.5L82.3,310
	c-1.5,0.2-2.5,0.4-2.8,0.6c-0.6,0.3-1.1,1-1.6,2.1l10.8,3.9c1.5,0.6,2.7,0.5,3.4,0c0.6-0.4,1.1-1.5,1.7-3.1l0.8,0.3l-6,16.5
	l-0.8-0.3c0.6-1.8,0.8-3,0.5-3.8c-0.3-0.8-1.3-1.6-3-2.2l-21.3-7.7c-1.8-0.7-3.1-0.9-3.8-0.7c-1,0.2-1.7,1.1-2.3,2.8l-0.2,0.7
	l-0.8-0.3l6-16.5l0.8,0.3l-0.2,0.5c-0.5,1.5-0.6,2.7-0.2,3.4c0.4,0.8,1.4,1.4,3,2l9.5,3.4c0.7-1.9,1.1-3,1.1-3.3
	c0.3-1.3,0.1-2.4-0.4-3.3c-0.5-0.8-1.7-1.9-3.5-3.1c-1.8-1.3-3.2-2.3-4-3c-1.4-1.3-2.3-2.7-2.7-4.1c-0.3-1.2-0.2-2.6,0.3-4.1
	c0.5-1.4,1.3-2.4,2.4-3.1c1.2-0.7,2.4-0.8,3.8-0.3c0.9,0.3,1.6,0.9,1.9,1.7c0.4,0.8,0.4,1.7,0,2.6c-0.6,1.8-2,2.4-4.1,1.8
	c-1.1-0.3-1.7-0.1-1.9,0.5c-0.5,1.3,0.9,3.1,4.2,5.4c1.7,1.2,2.8,2.1,3.3,2.5c1.3,1.1,2.1,2.2,2.6,3.2c1-1.5,2.3-2.4,3.9-2.8
	c0.3-0.1,2.3-0.4,6-1l6.9-1.1c1-0.2,1.8-0.5,2.5-1.1c0.7-0.5,1.2-1.3,1.6-2.3L109.9,300.6z M62.8,366.9l0.7-4.4
	c0.8-4.7,2.2-8,4.2-9.9c2-1.9,4.4-2.6,7.2-2.1c1.9,0.3,3.4,1.1,4.6,2.5c1.2,1.3,2,2.8,2.4,4.6c0.4,1.8,0.3,4.2-0.2,7.4l-3,17.8
	l-0.9-0.1c0.3-2.1,0.3-3.4-0.2-4.1c-0.4-0.7-1.5-1.1-3.3-1.5l-22.1-3.7c-2.4-0.4-3.9-0.4-4.5,0c-0.6,0.4-1.1,1.6-1.5,3.7l-0.8-0.1
	l2.9-17.1l0.9,0.1c-0.2,1.6-0.3,2.6-0.1,3.2c0.2,0.6,0.5,1,0.9,1.3c0.4,0.3,1.4,0.6,3,0.9L62.8,366.9z M64.9,367.3l10,1.7
	c1.6,0.3,2.7,0.2,3.5-0.1c0.7-0.3,1.2-1.1,1.4-2.3c0.3-1.9-0.1-3.5-1.2-4.6c-1.1-1.2-2.7-1.9-4.6-2.3c-1.9-0.3-3.5-0.1-4.9,0.5
	c-1.4,0.7-2.4,1.5-2.9,2.6C65.7,363.8,65.3,365.3,64.9,367.3z M85.9,335.2l0.8,0.1l-2.9,17.3l-0.8-0.1l0.2-1.1
	c0.2-1,0.1-1.9-0.1-2.4c-0.2-0.6-0.6-1-1.1-1.2c-0.5-0.2-1.5-0.5-3-0.8L57,343.4c-1.6-0.3-2.6-0.4-3.1-0.3c-0.5,0.1-0.9,0.3-1.4,0.8
	c-0.5,0.5-0.8,1.3-0.9,2.3l-0.2,1.1l-0.8-0.1l2.9-17.3l0.8,0.2l-0.2,1.1c-0.2,1-0.1,1.8,0.1,2.4c0.3,0.6,0.6,1,1.1,1.2
	c0.5,0.2,1.5,0.5,3,0.8l21.9,3.7c1.6,0.3,2.6,0.4,3.1,0.3c0.5-0.1,0.9-0.3,1.4-0.8c0.5-0.5,0.8-1.2,0.9-2.3L85.9,335.2z M44.6,386.7
	l9.1,0.7l-0.1,0.9c-2.1,0.4-3.7,0.8-4.6,1.4c-1,0.6-1.8,1.4-2.4,2.5c-0.3,0.6-0.6,1.7-0.7,3.3l-0.2,2.5l26,2c1.7,0.1,2.8,0.1,3.3,0
	c0.4-0.1,0.9-0.5,1.2-1c0.4-0.5,0.6-1.2,0.7-2.2l0.1-1.1l0.9,0.1l-1.3,17.5l-0.9-0.1l0.1-1.1c0.1-1-0.1-1.8-0.3-2.4
	c-0.2-0.4-0.6-0.8-1.1-1.1c-0.4-0.2-1.4-0.4-3.1-0.5l-26-2l-0.2,2.4c-0.2,2.2,0.2,3.9,1.1,5c1.2,1.5,3.1,2.6,5.5,3.1l-0.1,1
	l-9.1-0.7L44.6,386.7z M42.8,426.9l9.1-0.1l0,0.9c-2.1,0.6-3.6,1.2-4.5,1.8c-0.9,0.7-1.6,1.6-2.1,2.7c-0.3,0.6-0.4,1.7-0.4,3.3
	l0,2.5l26.1-0.4c1.7,0,2.8-0.1,3.3-0.3c0.4-0.2,0.8-0.6,1.1-1.1c0.3-0.6,0.5-1.3,0.5-2.3l0-1.1l0.9,0l0.3,17.6l-0.9,0l0-1.1
	c0-1-0.2-1.7-0.6-2.3c-0.2-0.4-0.6-0.8-1.2-1c-0.4-0.2-1.5-0.2-3.2-0.2l-26.1,0.4l0,2.4c0,2.3,0.5,3.9,1.5,4.9
	c1.4,1.4,3.3,2.3,5.8,2.6l0,1l-9.1,0.1L42.8,426.9z M46,469.2c0.3,1.8,0.8,2.9,1.4,3.3c0.7,0.4,1.8,0.5,3.4,0.2l23.1-3.9
	c1.8-0.3,2.9-0.8,3.3-1.4c0.4-0.6,0.5-1.9,0.2-3.7l0.9-0.1l2.8,16.7l-0.9,0.1c-0.2-1.3-0.5-2.3-0.8-2.8c-0.3-0.5-0.8-0.8-1.3-1
	c-0.5-0.1-1.5-0.1-2.8,0.1l-26.1,4.4l1.3,8l9.9-1.7c4.2-0.7,7.3-1.1,9.6-1.3c2.2-0.2,4.4,0,6.5,0.6c2.1,0.6,3.8,1.5,5,2.8
	c1.2,1.3,2,2.8,2.3,4.6c0.3,1.6,0.1,2.9-0.6,3.9c-0.7,1-1.7,1.6-2.9,1.8c-1,0.2-1.9,0-2.7-0.4c-0.7-0.4-1.2-1.2-1.4-2.2
	c-0.3-1.9,0.7-3.1,3-3.7c1-0.3,1.5-0.8,1.4-1.5c-0.2-1-1-2-2.6-2.9c-1.6-0.9-3.6-1.4-6.1-1.4c-2.5,0-6,0.4-10.6,1.2l-6.3,1.1
	c-1.8,0.3-3,0.6-3.5,0.9c-0.6,0.3-0.9,0.8-1.1,1.5c-0.2,0.7-0.1,1.8,0.1,3.4l-0.8,0.1l-4.5-27L46,469.2z M53.5,512.8
	c0.5,1,1,1.8,1.7,2.2c0.7,0.5,2.9,1.2,6.6,2.2l13.8,3.6l1.6-0.5l-2.2-7.6l1.8-0.5l2.2,7.6l4.4-1.3c1.3-0.4,2.1-0.6,2.4-0.8
	c0.8-0.4,1.3-1,1.5-1.8c0.2-0.6,0.1-1.3-0.1-2.2l-0.5-1.8l0.8-0.2l5.3,18.1l-0.8,0.2l-0.5-1.7c-0.3-0.9-0.7-1.6-1.2-2.1
	c-0.4-0.3-0.8-0.5-1.4-0.6c-0.4-0.1-1.5,0.2-3.1,0.6l-4.4,1.3l2.2,7.6l-1.8,0.5l-2.2-7.6l-0.3,0.1l-11.7,11.7
	c-1.8,1.8-2.8,2.9-3.1,3.2c-1,1.3-1.3,2.7-0.9,4.1l-0.8,0.2l-4.5-15.5l0.8-0.2l0.2,0.7c0.5,1.7,1.2,2.4,2,2.2
	c0.5-0.2,1.8-1.2,3.8-3.2l9-9l-11.4-3c-2.9-0.7-4.7-1-5.4-0.8c-1.1,0.3-1.3,1.7-0.8,4.1l-0.8,0.2l-2.9-9.9L53.5,512.8z M113.1,559.5
	l0.4,0.8c-5.2,4.2-6.4,8.8-3.8,13.8l-8.2,12.2c-0.9,1.3-1.3,2.1-1.4,2.4c-0.2,0.7,0,1.5,0.5,2.6l10.1-5.4c1.4-0.8,2.2-1.6,2.3-2.6
	c0.1-0.7-0.3-1.8-1.2-3.4l0.8-0.4l8.3,15.5l-0.8,0.4c-0.9-1.6-1.7-2.6-2.5-2.9c-0.8-0.3-2-0.1-3.6,0.8l-20,10.6
	c-1.7,0.9-2.7,1.7-3.1,2.3c-0.5,0.9-0.3,2,0.5,3.6l0.3,0.6l-0.8,0.4l-8.3-15.5l0.8-0.4l0.3,0.5c0.8,1.4,1.6,2.3,2.4,2.5
	c0.8,0.2,2-0.1,3.5-0.9l8.9-4.7c-0.9-1.8-1.5-2.8-1.7-3c-0.7-1.1-1.7-1.7-2.8-1.9c-0.9-0.2-2.5,0-4.7,0.5c-2.2,0.5-3.8,0.8-4.9,0.9
	c-1.9,0.2-3.5-0.1-4.8-0.8c-1.1-0.6-2.1-1.6-2.8-3c-0.7-1.3-0.9-2.6-0.7-3.8c0.3-1.3,1-2.3,2.3-3c0.9-0.5,1.7-0.6,2.6-0.3
	c0.8,0.3,1.5,0.8,2,1.7c0.9,1.7,0.4,3.1-1.5,4.2c-0.9,0.6-1.2,1.2-0.9,1.8c0.6,1.2,2.9,1.3,6.8,0.5c2.1-0.5,3.4-0.7,4.1-0.8
	c1.6-0.2,3-0.1,4.1,0.3c-0.4-1.7-0.3-3.3,0.5-4.8c0.1-0.3,1.2-2,3.2-5.1l3.8-5.9c0.5-0.8,0.8-1.7,0.9-2.6c0.1-0.9-0.2-1.8-0.6-2.7
	L113.1,559.5z M123.7,617.6l6.4,9.9l3.6-0.6c1.2-0.2,2.1-0.5,2.7-0.9c0.8-0.5,1.2-1.2,1.2-2.1c0-0.5-0.4-1.6-1.3-3.1l0.7-0.5
	l6.1,9.4l-0.7,0.5c-0.8-0.9-1.8-1.5-2.9-1.7c-1.1-0.2-3.1-0.1-5.9,0.4l-29.1,4.5l-0.3-0.4l16.6-25.2c1.6-2.4,2.5-4.1,2.6-5.1
	c0.1-0.8,0-1.6-0.5-2.5l0.7-0.5l8.9,13.7l-0.7,0.5l-0.4-0.6c-0.7-1.1-1.4-1.8-2-2c-0.4-0.2-0.8-0.1-1.3,0.2
	c-0.3,0.2-0.5,0.4-0.7,0.6c-0.1,0.1-0.5,0.7-1.2,1.7L123.7,617.6z M122.6,619.2l-6.9,10.5l12.4-1.9L122.6,619.2z M141.2,666.3
	l-8.2,6.4l-0.6-0.7c0.8-0.9,1-1.6,0.6-2.2c-0.2-0.3-0.7-0.6-1.5-1.1c-2-1.2-3.7-2.6-4.9-4.2c-2.1-2.7-3.1-5.3-2.9-7.9
	c0.2-2.5,1.2-4.5,2.9-5.9c0.8-0.6,1.8-1.1,2.9-1.4c1.1-0.3,2.4-0.3,3.8,0.1c1.4,0.3,3.1,1.3,5.1,2.8c-1.7-3.2-2.4-5.9-1.9-8.1
	c0.5-2.2,1.5-3.9,3-5.1c1.3-1.1,2.9-1.7,4.7-1.8c1.8-0.1,3.6,0.3,5.4,1.3c1.8,1,3.6,2.7,5.4,4.9c1.7,2.2,2.8,4.2,3.2,5.9
	c0.4,1.8,0.3,3.7-0.2,5.8l-1.4-0.2c0.5-3.3,0-6-1.5-8c-1.3-1.6-2.8-2.5-4.6-2.6c-1.8-0.1-3.6,0.5-5.3,1.8c-1.3,1-2.2,2.2-2.7,3.6
	c-0.5,1.3-0.6,2.6-0.2,3.7c0.4,1.1,1.2,2.5,2.4,4.2l-1.7,1.3c-0.3-0.5-0.6-0.8-0.9-1.2c-1.4-1.8-3-2.7-4.6-2.7
	c-1.6,0-3.4,0.8-5.3,2.3c-1.9,1.5-2.9,2.9-3.1,4.3c-0.2,1.4,0.1,2.7,1,3.7c1.1,1.5,2.6,2.2,4.5,2.2c1.9,0,3.9-0.8,6-2.3L141.2,666.3
	z M167.4,673l8.2,8.5l3.4-1.2c1.1-0.4,1.9-0.9,2.5-1.4c0.7-0.7,0.9-1.4,0.7-2.3c-0.1-0.5-0.7-1.4-1.9-2.8l0.6-0.6l7.8,8.1l-0.6,0.6
	c-1-0.7-2-1.1-3.2-1.1c-1.1,0-3,0.5-5.7,1.5l-27.7,10l-0.3-0.3l11.4-27.9c1.1-2.7,1.6-4.5,1.6-5.5c0-0.8-0.4-1.5-1-2.4l0.6-0.6
	l11.3,11.7l-0.6,0.6l-0.5-0.5c-0.9-0.9-1.7-1.5-2.3-1.6c-0.4-0.1-0.8,0.1-1.2,0.4c-0.2,0.2-0.4,0.5-0.6,0.8
	c-0.1,0.1-0.4,0.7-0.8,1.8L167.4,673z M166.6,674.8l-4.8,11.6l11.8-4.3L166.6,674.8z M198.5,677l0.7,0.5c-3.1,5.9-2.3,10.7,2.2,14.2
	l-2.5,14.5c-0.3,1.5-0.4,2.5-0.3,2.8c0.1,0.7,0.6,1.4,1.6,2.2l7.1-9c1-1.3,1.4-2.4,1.1-3.3c-0.2-0.7-1-1.5-2.4-2.6l0.5-0.7
	l13.8,10.8l-0.5,0.7c-1.5-1.1-2.6-1.7-3.4-1.6c-0.9,0-1.9,0.8-3,2.2l-13.9,17.8c-1.2,1.5-1.8,2.6-1.9,3.4c-0.1,1,0.6,2,1.9,3.1
	l0.6,0.4l-0.5,0.7l-13.8-10.8l0.5-0.7l0.4,0.4c1.3,1,2.4,1.4,3.2,1.3c0.8-0.1,1.8-0.9,2.8-2.2l6.2-7.9c-1.6-1.2-2.5-2-2.8-2.1
	c-1.1-0.7-2.2-0.9-3.3-0.6c-0.9,0.2-2.3,1-4.1,2.4c-1.8,1.4-3.1,2.3-4.1,2.8c-1.7,0.9-3.3,1.3-4.7,1.3c-1.3-0.1-2.6-0.6-3.8-1.6
	c-1.2-0.9-1.9-2-2.1-3.2c-0.3-1.3,0-2.6,0.9-3.7c0.6-0.8,1.4-1.2,2.2-1.3c0.9-0.1,1.7,0.2,2.5,0.8c1.5,1.2,1.6,2.6,0.4,4.5
	c-0.6,0.9-0.7,1.6-0.1,2c1.1,0.8,3.2,0,6.4-2.3c1.7-1.3,2.8-2.1,3.4-2.4c1.4-0.8,2.7-1.3,3.8-1.4c-1.1-1.4-1.6-2.9-1.5-4.6
	c0-0.3,0.3-2.3,0.9-6l1.1-7c0.1-1,0.1-1.9-0.2-2.8c-0.3-0.8-0.9-1.6-1.7-2.2L198.5,677z M421.1,168.5c9.4-2.9,22.9,10.5,14.5,24.1
	c-6.9,11.1-24.3,8.1-26.5-6.1C407.5,176.6,412.7,171,421.1,168.5z M302.3,670.4c29.7-18.4,17.9-63.7-19.7-61.8
	c-16.7,0.9-32,18.6-29.2,36.8c1.5,9.9,6.5,18.9,13.9,23.2c3.1,1.8,3.7,2.8,6.6,4c0.5,0.2,0.7,0.3,0.7,0.3c0.1,0,0.2,0.1,0.5,0.2
	c4.4,1.4,13.4,2.4,18.2,1.1c0.8-0.2,2-0.5,3.4-0.9c1.5-0.4,0.7-0.1,1.7-0.6L302.3,670.4z M396.6,650.8c4.7-16.2-2.8-31.4-16.8-39.1
	l-2.8-1.3c-0.8-0.3-2.5-0.3-3.2-0.7c-0.3-0.2,1.7-0.4-1.8-0.9c-9-1.2-16.6-0.2-24.4,4.4c-15.6,9.3-19.9,31.2-10.4,46l5.6,6.9
	l13.1,7.2C373.1,678.7,391.6,668.2,396.6,650.8z M516.5,646.5c0.9-6.1,0.5-9.6-1-14.7c-2.4-8.1-4.8-10.5-9.5-15.2
	c-1.5-1.5-2.5-2.4-4.7-3.6c-2.9-1.6-7.8-4-11.9-4.4c-34.2-3.5-48.2,33-30.6,54.1l4.8,4.8l0.3,0.3c3.1,2.8,11.2,6.1,15.3,6.6
	c10.1,1.2,19.3-2.2,25.6-7.2C510.4,662.8,515.2,655.5,516.5,646.5z M554.2,609.1c-5.8,2.9-11.9,4.1-18,13
	c-21.6,31.7,16.7,67,45.1,46.9c15.4-10.9,19.5-30.6,8.4-46.7c-2.6-3.8-4.3-5.3-8.1-8.2c-3.4-2.6-7.2-4-11.6-5.1
	C567.9,608.5,555.8,608.3,554.2,609.1z M531.8,503.3c-0.5,29.9,0.3,62.2,0,92.6l50.6-0.2l0-147.8c-3.2,1,0.4-0.8-3.6,2.8
	c-7.4,6.7-24.7,26.2-33.4,35c-1.9,1.9-4,4.2-6.1,6.5C533,499,531.9,498.2,531.8,503.3z M492.8,538.6l-39.5,52.7
	c-1.2,1.6-2,2.2-2.5,4.5l49.5-0.1c0.2-11,0.1-22,0.1-33.1c0-3,0.9-29.6-0.9-32.1C497.3,531.5,494.1,536.6,492.8,538.6z M346.4,534.5
	l0.2,61.2c13.7,0.5,35.8,0.1,49.6,0.1c-0.6-2.5-0.9-2.1-2.8-4.8c-1.1-1.6-2.1-3-3.1-4.2L350.8,534c-1.4-1.9-1.7-2.7-3.5-3.4
	C346.2,532.1,346.5,532,346.4,534.5z M315,595.8l0.1-90.7c0-6.9-0.7-5.6-4.3-9.5l-24.6-25.8c-3.4-3.5-18.1-20.8-21.7-21.9l0,141.1
	l0.1,6.9L315,595.8z M554.1,351.4H313.2c-15.2,0-33.4-1.7-45.8,5.6c-3.6,2.1-6.4,5.8-8.2,9.3c-8.2,16.7,3.8,40,15.1,53.2l49,54
	l2,2.2l28.8,30.5c2.8,3,5.7,6,8.5,8.9c11.2,11.8,37,37.1,49,45.7l1.4,1l1,0.8c4.1,3.2,9.4,5.8,15.5,5l-0.6-0.4c4-0.6,1.7-0.3,5-2.4
	l0.8-0.4l10.2-7.9l37.7-37.8c10-10.5,20.8-23.7,29.4-32.9l11.6-13.6l0.3-0.3c2.8-3.2,5.2-5.9,7.8-9l38.4-47.2
	c2.5-3.4,5.2-6.7,7.5-9.9c5-7,9.3-12.9,11.7-22.4c3-11.6-0.5-21.3-6.6-26.5C575.5,350.9,565.2,351.4,554.1,351.4z M375.2,434.8
	c-4.3-4.7-7.8-8.2-9.5-14.5c-4.8-18,19.7-13.7,33.2-13.7h71.9c1.5,0,4.4-0.1,5.8,0.2l0.8,0.3c3.8,1.5,5.2,8.1,3.7,11.9
	c-2.1,5.5-10.6,15.6-15,21.1l-3.2,4l-0.3,0.3l-0.5,0.6c-0.5,0.5-1,1.1-1.4,1.5c-4.3,4.4-7,8.1-11.2,12.7l-11.6,12.4
	c-2.1,2.2-3.4,3.7-6.1,5.9c-7,5.6-7.3,8.3-21.7-5.7c-8.2-8-15.2-15.7-23.4-24.5c-1.1-1.1-1.9-2-2.9-3.1l-1.4-1.6L375.2,434.8z
	 M442.8,250.4c-43-9.4-81.7,13.2-97.5,49.1c-3.3,7.6-8.2,24.1-7.4,35l170.8,0c0.5-13.2-3.4-26.7-7.6-35.8
	c-11.9-25.8-30.1-38.8-54.2-47.1C445.8,251.1,444,250.6,442.8,250.4z M362.5,156.1c-1.8,10.2,6.4,19.8,12.3,26.9l29.9,36
	c4.1,4.6,15.6,19.7,22.1,16.9c3.9-1.7,22.2-24,26.6-29.7l1.3-1.7c6.6-8.5,27.6-35.4,29.5-43.2c1.4-5.5,0.1-11.8-5.2-13.4
	c-3.2-1-79.4-0.4-85.4-0.4c-6.4,0-20.3-1-25.2,1.1C364.9,150,363.2,152.2,362.5,156.1z M417.9,766.5c-2.4,3.1-3.9,8.1-3.9,8.1
	c0-0.1-0.1,0.3-0.2,0.4c-3.2-0.2-1.4-0.5-4.3-1c-12.2-2.2-32.2-2.3-41.7,4.2c-1.8,1.2-4.3,2.9-6,4.8c-3.2,3.5-5.8,8.8-5.4,15.8
	c2.3,0,3.1-1.7,5.3-2.2c6.1-1.6,5,4.4,16.7,5.1c13,0.8,14.4-5.1,10.7-15.2l2.3-1.4c6.9-2.2,18.3,0,24.7,6.2c1.2,1.2,2.1,2.4,3.3,4
	c3,3.9,4.1,7,5.2,8.3c3.4-5.2,4.6-9.3,10.8-14.2c5.8-4.5,11.4-5.2,20.4-4.7l2.8,1.1c0.3,0.1,0.9,0.6,1,0.4c0.1-0.2,0.3,0.1,0.5,0.2
	c-3.6,10.6-1.8,16.6,12,15.1c4.3-0.5,8.1-2.6,11-4.7c4.2-3.1,5.8,1.9,9.6,1.9c0.6-8.1-3.2-14.4-7.8-18c-5.2-4.1-10.9-6.4-19-7.4
	l0.1-0.3c-5.7-0.5-11.1-0.4-16.8-0.2c-4.9,0.2-10.3,2.3-14.4,2.1c-0.8-2.2-0.3-2.8-1.4-5c-0.5-1.1-0.4-0.8-1.2-1.8l-2.8-3.2
	c-3.1-3.4-1.9-2-4.8-4.3l-1.1,0.7l-1,0.8c-0.8,0.6-0.1,0.1-1,0.8l-0.6,0.6C419.6,764.6,418.9,765.2,417.9,766.5z M424.5,0
	c117.2,0,223.4,47.5,300.2,124.3c76.8,76.8,124.3,183,124.3,300.2c0,117.2-47.5,223.4-124.3,300.2s-183,124.3-300.2,124.3
	c-117.2,0-223.4-47.5-300.2-124.3C47.5,647.9,0,541.8,0,424.5c0-117.2,47.5-223.4,124.3-300.2C201.2,47.5,307.3,0,424.5,0z
	 M712.7,136.3C639,62.6,537.1,17,424.5,17C312,17,210.1,62.6,136.4,136.3C62.6,210.1,17,312,17,424.5C17,537.1,62.6,639,136.4,712.7
	c73.7,73.7,175.6,119.4,288.2,119.4c112.5,0,214.4-45.6,288.2-119.4c73.8-73.8,119.4-175.6,119.4-288.2
	C832.1,312,786.5,210.1,712.7,136.3z M643.4,205.7c-56-56-133.4-90.7-218.8-90.7c-85.5,0-162.8,34.6-218.9,90.7
	c-56,56-90.6,133.4-90.6,218.8c0,85.5,34.6,162.8,90.6,218.9c56,56,133.4,90.6,218.9,90.6c85.5,0,162.8-34.6,218.8-90.6
	c56-56,90.7-133.4,90.7-218.9C734,339.1,699.4,261.7,643.4,205.7z"/>
</svg>
